# xmcd CD database file
#
# Track frame offsets:
#	150
#	23410
#	39715
#	56200
#	74732
#	88460
#	105247
#	126125
#
# Disc length: 1970 seconds
#
# Revision: 0
# Processed by: cddbd v1.5.1PL0 Copyright (c) Steve Scherf et al.
# Submitted via: CDex 1.51
#
DISCID=6e07b008
DTITLE=Vari - I COLORI DELLA VITA - Lavoro
DYEAR=2005
DGENRE=New Age
TTITLE0=Gino Paoli - Cosa farò da grande
TTITLE1=Rino Gaetano - Metà Africa, metà Europa
TTITLE2=Edoardo Bennato - Un giorno credi
TTITLE3=Eduardo De Crescenzo - Mani
TTITLE4=Ricchi e Poveri - Che sarà
TTITLE5=Lucio Dalla - 4 marzo 1943
TTITLE6=Amedeo Minghi - 1950
TTITLE7=Daniele Silvestri - L'uomo col megafono
EXTD=YEAR: 2005
EXTT0=
EXTT1=
EXTT2=
EXTT3=
EXTT4=
EXTT5=
EXTT6=
EXTT7=
PLAYORDER=
